# xmcd
#
# Track frame offsets: 
#        150
#        25619
#        44070
#        64073
#        88627
#        109934
#        132276
#        155735
#        171032
#        189363
#        211382
#        240283
#        274064
#        288234
#        307389
#
# Disc length: 4376 seconds
#
# Revision: 1
# Processed by: cddbd v1.5.2PL0 Copyright (c) Steve Scherf et al.
# Submitted via: ExactAudioCopy v0.95b2
#
DISCID=d711160f
DTITLE=Various Artist - El Cubanito
DYEAR=1999
DGENRE=Latin
TTITLE0=Manolito Y Su Trabuco - Marcando La Distancia
TTITLE1=Los Van Van - Esto Te Pone La Cabeza Mala
TTITLE2=Los Toros Band - La Quiero Ver
TTITLE3=Proyecto Uno - Latinos
TTITLE4=Tito Rojas - Te Quiero Para Mi
TTITLE5=Frankie Negron - Agua Pasada
TTITLE6=Tono Rosario - Asi Fue
TTITLE7=Fulanito - Guallando
TTITLE8=Carlos Ponce - Busco Una Mujer
TTITLE9=Raulin Rodriguez - Corazon, Corazon
TTITLE10=Manolito Y Su Trabuco - Llego La Musica Cubana
TTITLE11=Los Van Van - Qué Pasa Con Ella
TTITLE12=Oro Solido - Verano Solido
TTITLE13=Pochy Familia Y Su Coco Band - Pa' Tra Y Pa' Lante
TTITLE14=Sergio Vargas - Ni Tu Ni Yo
EXTD=
EXTT0=
EXTT1=
EXTT2=
EXTT3=
EXTT4=
EXTT5=
EXTT6=
EXTT7=
EXTT8=
EXTT9=
EXTT10=
EXTT11=
EXTT12=
EXTT13=
EXTT14=
PLAYORDER=
